#define curbm0_width 32
#define curbm0_height 32
static char curbm0_bits[] = {
 0x00,0x00,0x00,0x00,0x00,0x00,0x00,0x00,0x00,0x00,0x00,0x00,0x00,0x00,0x00,
 0x00,0x00,0x00,0x00,0x00,0x00,0x00,0x00,0x00,0x00,0x00,0x00,0x00,0x00,0x08,
 0x00,0x00,0x00,0x18,0x00,0x00,0x00,0x28,0x00,0x00,0x00,0x48,0x00,0x00,0x00,
 0x88,0x00,0x00,0x00,0x08,0x01,0x00,0x00,0x08,0x02,0x00,0x00,0x08,0x04,0x00,
 0x00,0x08,0x08,0x00,0x00,0x08,0x10,0x00,0x00,0x08,0x3e,0x00,0x00,0x48,0x02,
 0x00,0x00,0xa8,0x04,0x00,0x00,0x98,0x04,0x00,0x00,0x08,0x09,0x00,0x00,0x00,
 0x09,0x00,0x00,0x00,0x12,0x00,0x00,0x00,0x12,0x00,0x00,0x00,0x0c,0x00,0x00,
 0x00,0x00,0x00,0x00,0x00,0x00,0x00,0x00,0x00,0x00,0x00,0x00,0x00,0x00,0x00,
 0x00,0x00,0x00,0x00,0x00,0x00,0x00,0x00};
