/* XPM */
static const char *cursor_busy[] = {
	/* columns rows colors chars-per-pixel */
	"32 32 3 1",
	"X c #ffffff",
	". c #000000",
	"  c None",
	/* pixels */
"                                ",
"                                ",
"                                ",
"       XXXXXXXXXXXXXXXXX        ",
"       X...............X        ",
"       X.XXXXXXXXXXXXX.X        ",
"       X.XX.........XX.X        ",
"       X.XXXXXXXXXXXXX.X        ",
"        X.X.........X.X         ",
"        X.X.........X.X         ",
"        X.X..X.X.X..X.X         ",
"        X.X...X.X...X.X         ",
"        X.XX...X...XX.X         ",
"         X.XX.....XX.X          ",
"          X.XX.X.XX.X           ",
"           X.XX.XX.X            ",
"           X.XX.XX.X            ",
"          X.XX...XX.X           ",
"         X.XX..X..XX.X          ",
"        X.XX.......XX.X         ",
"        X.X....X....X.X         ",
"        X.X...X.X...X.X         ",
"        X.X..X.X.X..X.X         ",
"        X.X.X.X.X.X.X.X         ",
"       X.XXXXXXXXXXXXX.X        ",
"       X.XX.........XX.X        ",
"       X.XXXXXXXXXXXXX.X        ",
"       X...............X        ",
"       XXXXXXXXXXXXXXXXX        ",
"                                ",
"                                ",
"                                ",
"15,15"
};
