/* XPM */
static const char *cursor_ibeam[] = {
	/* width height num_colors chars_per_pixel */
	"    32    32        3            1",
	/* colors */
	". c #000000",
	"X c #ffffff",
	"  c None",
	/* pixels */
	"           XXX XXX              ",
	"             XXX                ",
	"             X.X                ",
	"             X.X                ",
	"             X.X                ",
	"             X.X                ",
	"             X.X                ",
	"             X.X                ",
	"             X.X                ",
	"             X.X                ",
	"             X.X                ",
	"             X.X                ",
	"             X.X                ",
	"             X.X                ",
	"             X.X                ",
	"             X.X                ",
	"             X.X                ",
	"             X.X                ",
	"             X.X                ",
	"             X.X                ",
	"             X.X                ",
	"             X.X                ",
	"             X.X                ",
	"             X.X                ",
	"             X.X                ",
	"             X.X                ",
	"             X.X                ",
	"             X.X                ",
	"             X.X                ",
	"             XXX                ",
	"           XXX XXX              ",
	"                                ",
	"15,15"
};
