/* XPM */
static const char *cursor_no[] = {
/* columns rows colors chars-per-pixel */
	"32 32 3 1",
	"X c #ffffff",
	". c #000000",
	"  c None",
	/* pixels */
"                                ",
"                                ",
"                                ",
"                                ",
"                                ",
"                                ",
"             ......             ",
"           ..XXXXXX..           ",
"          .XXXXXXXXX .          ",
"         .XXXX....XXX .         ",
"        .XXX..    ..XXX.        ",
"       .XXXXX.      .XXX.       ",
"       .XX.XXX.      .XX.       ",
"      .XXX..XXX.     .XXX.      ",
"      .XX.  .XXX.     .XX.      ",
"      .XX.   .XXX.    .XX.      ",
"      .XX.    .XXX.   .XX.      ",
"      .XX.     .XXX.  .XX.      ",
"      .XXX.     .XXX..XXX.      ",
"       .XX .      .XX.XX.       ",
"       .XXX.      .XXXXX.       ",
"        .XXX..    ..XXX.        ",
"         .XXXX....XXXX.         ",
"          .XXXXXXXXXX.          ",
"           ..XXXXXX..           ",
"             ......             ",
"                                ",
"                                ",
"                                ",
"                                ",
"                                ",
"                                ",
"16,16"
};
