/* XPM */
static const char *cursor_move[] = {
/* columns rows colors chars-per-pixel */
"32 32 3 1",
"X c #ffffff",
". c #000000",
"  c None",
/* pixels */
"                                ",
"                                ",
"                                ",
"                                ",
"                X               ",
"               X.X              ",
"              X...X             ",
"             X.....X            ",
"            X.......X           ",
"            XXXXXXXXX           ",
"               X.X              ",
"               X.X              ",
"        XX     X.X     XX       ",
"       X.X     X.X     X.X      ",
"      X..X     X.X     X..X     ",
"     X...XXXXXXX.XXXXXXX...X    ",
"    X....X.............X....X   ",
"     X...XXXXXXX.XXXXXXX...X    ",
"      X..X     X.X     X..X     ",
"       X.X     X.X     X.X      ",
"        XX     X.X     XX       ",
"               X.X              ",
"               X.X              ",
"            XXXXXXXXX           ",
"            X.......X           ",
"             X.....X            ",
"              X...X             ",
"               X.X              ",
"                X               ",
"                                ",
"                                ",
"                                ",
"15,15"
};
