#define maskbm3_width 32
#define maskbm3_height 32
static char maskbm3_bits[] = {
 0x00,0x00,0x00,0x00,0x00,0x00,0x00,0x00,0x00,0x00,0x00,0x00,0x00,0x00,0x00,
 0x00,0x00,0x00,0x00,0x00,0x00,0x00,0x00,0x00,0x00,0x00,0x00,0x00,0x00,0x00,
 0x00,0x00,0x00,0x00,0x00,0x00,0x00,0xfe,0x00,0x00,0x00,0xfe,0x00,0x00,0x00,
 0x7e,0x00,0x00,0x00,0x3e,0x00,0x00,0x00,0x7e,0x00,0x00,0x00,0xee,0x00,0x00,
 0x00,0xc6,0x01,0x00,0x00,0x80,0x03,0x00,0x00,0x00,0xc7,0x00,0x00,0x00,0xee,
 0x00,0x00,0x00,0xfc,0x00,0x00,0x00,0xf8,0x00,0x00,0x00,0xfc,0x00,0x00,0x00,
 0xfe,0x00,0x00,0x00,0xfe,0x00,0x00,0x00,0x00,0x00,0x00,0x00,0x00,0x00,0x00,
 0x00,0x00,0x00,0x00,0x00,0x00,0x00,0x00,0x00,0x00,0x00,0x00,0x00,0x00,0x00,
 0x00,0x00,0x00,0x00,0x00,0x00,0x00,0x00};
