#define maskbm0_width 32
#define maskbm0_height 32
static char maskbm0_bits[] = {
 0x00,0x00,0x00,0x00,0x00,0x00,0x00,0x00,0x00,0x00,0x00,0x00,0x00,0x00,0x00,
 0x00,0x00,0x00,0x00,0x00,0x00,0x00,0x00,0x00,0x00,0x00,0x00,0x00,0x00,0x08,
 0x00,0x00,0x00,0x18,0x00,0x00,0x00,0x38,0x00,0x00,0x00,0x78,0x00,0x00,0x00,
 0xf8,0x00,0x00,0x00,0xf8,0x01,0x00,0x00,0xf8,0x03,0x00,0x00,0xf8,0x07,0x00,
 0x00,0xf8,0x0f,0x00,0x00,0xf8,0x1f,0x00,0x00,0xf8,0x3f,0x00,0x00,0xf8,0x03,
 0x00,0x00,0xb8,0x07,0x00,0x00,0x98,0x07,0x00,0x00,0x08,0x0f,0x00,0x00,0x00,
 0x0f,0x00,0x00,0x00,0x1e,0x00,0x00,0x00,0x1e,0x00,0x00,0x00,0x0c,0x00,0x00,
 0x00,0x00,0x00,0x00,0x00,0x00,0x00,0x00,0x00,0x00,0x00,0x00,0x00,0x00,0x00,
 0x00,0x00,0x00,0x00,0x00,0x00,0x00,0x00};
