#define maskbm6_width 32
#define maskbm6_height 32
static char maskbm6_bits[] = {
 0x00,0x00,0x00,0x00,0x00,0x00,0x00,0x00,0x00,0x00,0x00,0x00,0x00,0x00,0x00,
 0x00,0x00,0x00,0x01,0x00,0x00,0x80,0x03,0x00,0x00,0xc0,0x07,0x00,0x00,0xe0,
 0x0f,0x00,0x00,0xf0,0x1f,0x00,0x00,0xf0,0x1f,0x00,0x00,0x80,0x03,0x00,0x00,
 0x80,0x03,0x00,0x00,0x83,0x83,0x01,0x80,0x83,0x83,0x03,0xc0,0x83,0x83,0x07,
 0xe0,0xff,0xff,0x0f,0xf0,0xff,0xff,0x1f,0xe0,0xff,0xff,0x0f,0xc0,0x83,0x83,
 0x07,0x80,0x83,0x83,0x03,0x00,0x83,0x83,0x01,0x00,0x80,0x03,0x00,0x00,0x80,
 0x03,0x00,0x00,0xf0,0x1f,0x00,0x00,0xf0,0x1f,0x00,0x00,0xe0,0x0f,0x00,0x00,
 0xc0,0x07,0x00,0x00,0x80,0x03,0x00,0x00,0x00,0x01,0x00,0x00,0x00,0x00,0x00,
 0x00,0x00,0x00,0x00,0x00,0x00,0x00,0x00};
