#define maskbm4_width 32
#define maskbm4_height 32
static char maskbm4_bits[] = {
 0x00,0x00,0x00,0x00,0x00,0x00,0x00,0x00,0x00,0x00,0x00,0x00,0x00,0x00,0x00,
 0x00,0x00,0x00,0x00,0x00,0x00,0x00,0x00,0x00,0x00,0x00,0x00,0x00,0x00,0x00,
 0x00,0x00,0x00,0x00,0x00,0x00,0x00,0x00,0x7f,0x00,0x00,0x00,0x7f,0x00,0x00,
 0x00,0x7e,0x00,0x00,0x00,0x7c,0x00,0x00,0x00,0x7e,0x00,0x00,0x00,0x77,0x00,
 0x00,0x80,0x63,0x00,0x00,0xc0,0x01,0x00,0x00,0xe3,0x00,0x00,0x00,0x77,0x00,
 0x00,0x00,0x3f,0x00,0x00,0x00,0x1f,0x00,0x00,0x00,0x3f,0x00,0x00,0x00,0x7f,
 0x00,0x00,0x00,0x7f,0x00,0x00,0x00,0x00,0x00,0x00,0x00,0x00,0x00,0x00,0x00,
 0x00,0x00,0x00,0x00,0x00,0x00,0x00,0x00,0x00,0x00,0x00,0x00,0x00,0x00,0x00,
 0x00,0x00,0x00,0x00,0x00,0x00,0x00,0x00};
